<svg width="121" height="31" viewBox="0 0 121 31" fill="none" xmlns="http://www.w3.org/2000/svg">
<path d="M25.5855 15.6167L22.0284 5.57297C21.9879 5.45244 21.9208 5.36546 21.8269 5.31204C21.7464 5.25859 21.6525 5.23197 21.5453 5.23218C21.3041 5.23264 21.1435 5.34685 21.0635 5.57482L17.545 15.6322L15.1932 15.6367L19.0918 4.63385C19.2783 4.08406 19.5858 3.67474 20.0141 3.4059C20.4558 3.13704 20.9648 3.00206 21.541 3.00095C22.1038 2.99987 22.6066 3.13291 23.0494 3.40008C23.4921 3.66724 23.8078 4.07536 23.9965 4.62443L27.9373 15.6122L25.5855 15.6167Z" fill="#009B95"/>
<path d="M10.2074 5.54274C11.1314 5.54274 12.0346 5.81674 12.8028 6.33009C13.5711 6.84344 14.1698 7.57308 14.5233 8.42672C14.8769 9.28037 14.9693 10.2197 14.789 11.1259C14.6086 12.0321 14.1636 12.8644 13.5102 13.5177C12.8568 14.1709 12.0243 14.6158 11.1181 14.7959C10.2118 14.976 9.27255 14.8833 8.41899 14.5296C7.56543 14.1758 6.83594 13.5769 6.32278 12.8086C5.80962 12.0402 5.53584 11.1369 5.53607 10.213C5.53788 8.97372 6.03144 7.78585 6.90837 6.91021C7.78529 6.03456 8.97389 5.54274 10.2131 5.54274H10.2074ZM10.2131 0.000976626C8.19313 0.000976639 6.21848 0.599997 4.53891 1.72228C2.85934 2.84457 1.5503 4.43971 0.777325 6.30598C0.00434982 8.17226 -0.197838 10.2258 0.196331 12.207C0.590499 14.1882 1.56332 16.008 2.99177 17.4363C4.42021 18.8646 6.24013 19.8372 8.22136 20.2312C10.2026 20.6251 12.2561 20.4227 14.1223 19.6495C15.9885 18.8763 17.5835 17.5671 18.7056 15.8874C19.8277 14.2077 20.4265 12.233 20.4263 10.213C20.4263 8.87182 20.1621 7.5438 19.6488 6.30475C19.1356 5.0657 18.3832 3.93989 17.4349 2.9916C16.4865 2.04331 15.3606 1.29113 14.1215 0.777993C12.8823 0.264859 11.5543 0.00082681 10.2131 0.000976626Z" fill="#FF7A00"/>
<path d="M32.5788 5.54177C33.5027 5.54177 34.406 5.81577 35.1742 6.32912C35.9424 6.84246 36.5412 7.5721 36.8947 8.42575C37.2482 9.2794 37.3407 10.2187 37.1603 11.1249C36.98 12.0311 36.535 12.8634 35.8815 13.5167C35.2281 14.17 34.3957 14.6148 33.4894 14.7949C32.5832 14.975 31.6439 14.8823 30.7903 14.5286C29.9368 14.1749 29.2073 13.5759 28.6941 12.8076C28.181 12.0392 27.9072 11.136 27.9074 10.212C27.9092 8.97374 28.402 7.78672 29.2777 6.91124C30.1534 6.03576 31.3405 5.54328 32.5788 5.54177ZM32.5788 6.37301e-08C30.5587 -0.000225554 28.584 0.598602 26.9042 1.72075C25.2245 2.8429 23.9153 4.43796 23.1422 6.30421C22.369 8.17047 22.1667 10.2241 22.5607 12.2053C22.9547 14.1866 23.9275 16.0065 25.3559 17.4349C26.7843 18.8633 28.6042 19.8361 30.5854 20.2301C32.5667 20.6241 34.6203 20.4218 36.4866 19.6486C38.3528 18.8755 39.9479 17.5663 41.07 15.8865C42.1922 14.2068 42.791 12.2321 42.7908 10.212C42.7908 7.50361 41.7149 4.90615 39.7998 2.99103C37.8846 1.0759 35.2872 6.37301e-08 32.5788 6.37301e-08Z" fill="#FF7A00"/>
<path d="M24.678 24.1099C25.6357 25.2795 26.8412 26.2219 28.2074 26.869C29.5737 27.5161 31.0665 27.8518 32.5782 27.8518C34.09 27.8518 35.5828 27.5161 36.9491 26.869C38.3153 26.2219 39.5208 25.2795 40.4785 24.1099" stroke="#FF7A00" stroke-width="5.0752" stroke-miterlimit="10"/>
<path d="M62.8386 12.6159C61.7287 13.7153 60.378 14.265 58.7865 14.265C57.1949 14.265 55.8442 13.7153 54.7343 12.6159C53.6349 11.4956 53.0852 10.1396 53.0852 8.54808C53.0852 6.94607 53.6349 5.59536 54.7343 4.49594C55.8442 3.38605 57.1949 2.83111 58.7865 2.83111C60.378 2.83111 61.7287 3.38605 62.8386 4.49594C63.9485 5.59536 64.5034 6.94607 64.5034 8.54808C64.5034 10.1501 63.9485 11.506 62.8386 12.6159ZM56.2578 11.1396C56.9279 11.8097 57.7708 12.1447 58.7865 12.1447C59.8021 12.1447 60.645 11.8097 61.3151 11.1396C61.9957 10.459 62.336 9.59514 62.336 8.54808C62.336 7.50101 61.9957 6.63719 61.3151 5.95659C60.6345 5.276 59.7916 4.93571 58.7865 4.93571C57.7813 4.93571 56.9384 5.276 56.2578 5.95659C55.5772 6.63719 55.2369 7.50101 55.2369 8.54808C55.2369 9.59514 55.5772 10.459 56.2578 11.1396ZM71.304 8.13972L76.8168 8.13972L76.8168 8.98785C76.8168 10.5584 76.3142 11.8306 75.309 12.8044C74.3038 13.7782 73.0055 14.265 71.4139 14.265C69.7177 14.265 68.3094 13.7153 67.189 12.6159C66.0791 11.506 65.5242 10.1553 65.5242 8.56378C65.5242 6.96178 66.0739 5.60583 67.1733 4.49594C68.2832 3.38605 69.6549 2.83111 71.2883 2.83111C72.3039 2.83111 73.2358 3.06146 74.0839 3.52217C74.9321 3.98288 75.5969 4.60588 76.0786 5.39118L74.2253 6.45919C73.9635 6.00895 73.5656 5.64248 73.0316 5.35977C72.4976 5.07706 71.9113 4.93571 71.2726 4.93571C70.215 4.93571 69.3512 5.28124 68.6811 5.9723C68.011 6.64242 67.6759 7.50625 67.6759 8.56378C67.6759 9.60038 68.0162 10.459 68.6968 11.1396C69.3774 11.8097 70.2883 12.1447 71.4296 12.1447C72.2568 12.1447 72.9479 11.9615 73.5028 11.595C74.0578 11.2286 74.4347 10.7155 74.6337 10.0559L71.304 10.0559L71.304 8.13972ZM87.6092 12.6159C86.4993 13.7153 85.1486 14.265 83.5571 14.265C81.9656 14.265 80.6148 13.7153 79.505 12.6159C78.4055 11.4956 77.8558 10.1396 77.8558 8.54808C77.8558 6.94607 78.4055 5.59536 79.505 4.49594C80.6148 3.38605 81.9656 2.83111 83.5571 2.83111C85.1486 2.83111 86.4993 3.38605 87.6092 4.49594C88.7191 5.59536 89.2741 6.94607 89.2741 8.54808C89.2741 10.1501 88.7191 11.506 87.6092 12.6159ZM81.0284 11.1396C81.6986 11.8097 82.5414 12.1447 83.5571 12.1447C84.5727 12.1447 85.4156 11.8097 86.0858 11.1396C86.7663 10.459 87.1066 9.59514 87.1066 8.54808C87.1066 7.50101 86.7663 6.63719 86.0858 5.95659C85.4052 5.276 84.5623 4.93571 83.5571 4.93571C82.5519 4.93571 81.709 5.276 81.0284 5.95659C80.3478 6.63719 80.0075 7.50101 80.0075 8.54808C80.0075 9.59514 80.3478 10.459 81.0284 11.1396ZM96.0746 8.13972L101.587 8.13972V8.98785C101.587 10.5584 101.085 11.8306 100.08 12.8044C99.0745 13.7782 97.7761 14.265 96.1846 14.265C94.4883 14.265 93.08 13.7153 91.9597 12.6159C90.8498 11.506 90.2948 10.1553 90.2948 8.56378C90.2948 6.96178 90.8445 5.60583 91.944 4.49594C93.0538 3.38605 94.4255 2.83111 96.0589 2.83111C97.0746 2.83111 98.0065 3.06146 98.8546 3.52217C99.7027 3.98288 100.368 4.60588 100.849 5.39118L98.9959 6.45919C98.7342 6.00895 98.3363 5.64248 97.8023 5.35977C97.2683 5.07706 96.6819 4.93571 96.0432 4.93571C94.9857 4.93571 94.1218 5.28124 93.4517 5.9723C92.7816 6.64242 92.4465 7.50625 92.4465 8.56378C92.4465 9.60038 92.7868 10.459 93.4674 11.1396C94.148 11.8097 95.059 12.1447 96.2003 12.1447C97.0275 12.1447 97.7185 11.9615 98.2735 11.595C98.8284 11.2286 99.2053 10.7155 99.4043 10.0559L96.0746 10.0559L96.0746 8.13972ZM112.38 12.6159C111.27 13.7153 109.919 14.265 108.328 14.265C106.736 14.265 105.385 13.7153 104.276 12.6159C103.176 11.4956 102.626 10.1396 102.626 8.54808C102.626 6.94607 103.176 5.59536 104.276 4.49594C105.385 3.38605 106.736 2.83111 108.328 2.83111C109.919 2.83111 111.27 3.38605 112.38 4.49594C113.49 5.59536 114.045 6.94607 114.045 8.54808C114.045 10.1501 113.49 11.506 112.38 12.6159ZM105.799 11.1396C106.469 11.8097 107.312 12.1447 108.328 12.1447C109.343 12.1447 110.186 11.8097 110.856 11.1396C111.537 10.459 111.877 9.59514 111.877 8.54808C111.877 7.50101 111.537 6.63719 110.856 5.95659C110.176 5.276 109.333 4.93571 108.328 4.93571C107.323 4.93571 106.48 5.276 105.799 5.95659C105.118 6.63719 104.778 7.50101 104.778 8.54808C104.778 9.59514 105.118 10.459 105.799 11.1396Z" fill="#FF7A00"/>
<path d="M59.4618 20.1188V19.1922L61.4879 19.1922L61.4879 27.0452L59.4618 27.0452V26.1185C58.8545 26.8829 58.0012 27.265 56.9017 27.265C55.8547 27.265 54.9542 26.8672 54.2003 26.0714C53.4569 25.2652 53.0852 24.2809 53.0852 23.1187C53.0852 21.9669 53.4569 20.9879 54.2003 20.1817C54.9542 19.3754 55.8547 18.9723 56.9017 18.9723C58.0012 18.9723 58.8545 19.3545 59.4618 20.1188ZM55.7238 24.7207C56.1321 25.129 56.6504 25.3332 57.2787 25.3332C57.9069 25.3332 58.4252 25.129 58.8336 24.7207C59.2524 24.3019 59.4618 23.7679 59.4618 23.1187C59.4618 22.4695 59.2524 21.9407 58.8336 21.5324C58.4252 21.1135 57.9069 20.9041 57.2787 20.9041C56.6504 20.9041 56.1321 21.1135 55.7238 21.5324C55.3154 21.9407 55.1113 22.4695 55.1113 23.1187C55.1113 23.7679 55.3154 24.3019 55.7238 24.7207ZM67.0631 27.265C65.8799 27.265 64.8905 26.8672 64.0947 26.0714C63.3094 25.2756 62.9168 24.2914 62.9168 23.1187C62.9168 21.946 63.3094 20.9617 64.0947 20.166C64.8905 19.3702 65.8799 18.9723 67.0631 18.9723C67.8275 18.9723 68.5238 19.1555 69.152 19.522C69.7803 19.8885 70.2567 20.3806 70.5813 20.9984L68.8379 22.0193C68.6808 21.6947 68.44 21.4381 68.1154 21.2497C67.8013 21.0612 67.4453 20.967 67.0474 20.967C66.4401 20.967 65.9375 21.1711 65.5397 21.5795C65.1418 21.9774 64.9428 22.4904 64.9428 23.1187C64.9428 23.726 65.1418 24.239 65.5397 24.6579C65.9375 25.0557 66.4401 25.2547 67.0474 25.2547C67.4558 25.2547 67.817 25.1657 68.1311 24.9877C68.4557 24.7992 68.6966 24.5427 68.8536 24.2181L70.6127 25.2233C70.2671 25.8515 69.775 26.3489 69.1363 26.7153C68.5081 27.0818 67.817 27.265 67.0631 27.265ZM77.5298 20.1188V19.1922L79.5559 19.1922L79.5559 27.0452L77.5298 27.0452V26.1185C76.9225 26.8829 76.0692 27.265 74.9697 27.265C73.9227 27.265 73.0222 26.8672 72.2683 26.0714C71.5249 25.2652 71.1532 24.2809 71.1532 23.1187C71.1532 21.9669 71.5249 20.9879 72.2683 20.1817C73.0222 19.3754 73.9227 18.9723 74.9697 18.9723C76.0692 18.9723 76.9225 19.3545 77.5298 20.1188ZM73.7918 24.7207C74.2001 25.129 74.7184 25.3332 75.3467 25.3332C75.9749 25.3332 76.4932 25.129 76.9016 24.7207C77.3204 24.3019 77.5298 23.7679 77.5298 23.1187C77.5298 22.4695 77.3204 21.9407 76.9016 21.5324C76.4932 21.1135 75.9749 20.9041 75.3467 20.9041C74.7184 20.9041 74.2001 21.1135 73.7918 21.5324C73.3834 21.9407 73.1793 22.4695 73.1793 23.1187C73.1793 23.7679 73.3834 24.3019 73.7918 24.7207ZM87.3457 20.1188V16.051L89.3717 16.051L89.3717 27.0452L87.3457 27.0452V26.1185C86.7488 26.8829 85.9007 27.265 84.8013 27.265C83.7438 27.265 82.8381 26.8672 82.0842 26.0714C81.3408 25.2652 80.969 24.2809 80.969 23.1187C80.969 21.9669 81.3408 20.9879 82.0842 20.1817C82.8381 19.3754 83.7438 18.9723 84.8013 18.9723C85.9007 18.9723 86.7488 19.3545 87.3457 20.1188ZM83.6076 24.7207C84.0369 25.129 84.5605 25.3332 85.1782 25.3332C85.8065 25.3332 86.3248 25.129 86.7331 24.7207C87.1415 24.3019 87.3457 23.7679 87.3457 23.1187C87.3457 22.4695 87.1415 21.9407 86.7331 21.5324C86.3248 21.1135 85.8065 20.9041 85.1782 20.9041C84.55 20.9041 84.0265 21.1135 83.6076 21.5324C83.1993 21.9407 82.9951 22.4695 82.9951 23.1187C82.9951 23.7679 83.1993 24.3019 83.6076 24.7207ZM98.8578 23.9511L92.9366 23.9511C93.1984 24.9353 93.9366 25.4275 95.1512 25.4275C95.926 25.4275 96.5123 25.1657 96.9102 24.6422L98.5437 25.5845C97.7688 26.7049 96.6275 27.265 95.1198 27.265C93.8214 27.265 92.7796 26.8724 91.9943 26.0871C91.209 25.3018 90.8163 24.3123 90.8163 23.1187C90.8163 21.946 91.2037 20.9617 91.9786 20.166C92.7429 19.3702 93.7376 18.9723 94.9627 18.9723C96.1249 18.9723 97.0725 19.3702 97.8055 20.166C98.5594 20.9617 98.9363 21.946 98.9363 23.1187C98.9363 23.3386 98.9101 23.616 98.8578 23.9511ZM92.9052 22.3805L96.9102 22.3805C96.7951 21.8674 96.5595 21.4748 96.2035 21.2025C95.8579 20.9303 95.4443 20.7942 94.9627 20.7942C94.4182 20.7942 93.968 20.9355 93.612 21.2183C93.256 21.4905 93.0204 21.8779 92.9052 22.3805ZM109.036 18.9723C109.937 18.9723 110.654 19.2655 111.188 19.8518C111.732 20.4382 112.005 21.2235 112.005 22.2077L112.005 27.0452L109.978 27.0452L109.978 22.3491C109.978 21.8779 109.863 21.5114 109.633 21.2497C109.403 20.9879 109.078 20.857 108.659 20.857C108.198 20.857 107.837 21.0088 107.575 21.3125C107.324 21.6161 107.198 22.0559 107.198 22.6318L107.198 27.0452L105.172 27.0452L105.172 22.3491C105.172 21.8779 105.057 21.5114 104.827 21.2497C104.597 20.9879 104.272 20.857 103.853 20.857C103.403 20.857 103.042 21.0141 102.769 21.3282C102.508 21.6318 102.377 22.0664 102.377 22.6318L102.377 27.0452L100.351 27.0452L100.351 19.1922L102.377 19.1922V20.0246C102.848 19.3231 103.576 18.9723 104.56 18.9723C105.534 18.9723 106.246 19.3492 106.696 20.1031C107.209 19.3492 107.989 18.9723 109.036 18.9723ZM116.933 24.4694L118.677 19.1922L120.844 19.1922L117.986 27.0452C117.577 28.176 117.033 28.9927 116.352 29.4953C115.682 30.0084 114.844 30.2387 113.839 30.1864L113.839 28.3016C114.373 28.3121 114.803 28.1969 115.127 27.9561C115.452 27.7153 115.708 27.3279 115.897 26.7939L112.677 19.1922L114.892 19.1922L116.933 24.4694Z" fill="#009B95"/>
</svg>
