<svg width="58" height="58" viewBox="0 0 58 58" fill="none" xmlns="http://www.w3.org/2000/svg">
<path d="M43.2831 56.3846H55.96L36.6185 37.0492C36.5896 37.0206 36.5667 36.9866 36.5511 36.9491C36.5355 36.9116 36.5274 36.8714 36.5274 36.8308C36.5274 36.7901 36.5355 36.7499 36.5511 36.7124C36.5667 36.6749 36.5896 36.6409 36.6185 36.6123C36.677 36.5555 36.7554 36.5238 36.8369 36.5238C36.9185 36.5238 36.9968 36.5555 37.0554 36.6123L56.3846 55.9292V43.3015C56.3846 43.2199 56.417 43.1417 56.4747 43.084C56.5324 43.0263 56.6107 42.9939 56.6923 42.9939C56.7739 42.9939 56.8522 43.0263 56.9099 43.084C56.9676 43.1417 57 43.2199 57 43.3015V56.6923C57 56.7739 56.9676 56.8522 56.9099 56.9099C56.8522 56.9676 56.7739 57 56.6923 57H43.2831C43.2015 57 43.1232 56.9676 43.0655 56.9099C43.0078 56.8522 42.9754 56.7739 42.9754 56.6923C42.9754 56.6107 43.0078 56.5324 43.0655 56.4747C43.1232 56.417 43.2015 56.3846 43.2831 56.3846ZM43.2831 1.61538H55.9292L36.6062 20.9446C36.5482 21.0026 36.5157 21.0811 36.5157 21.1631C36.5157 21.245 36.5482 21.3236 36.6062 21.3815C36.6641 21.4395 36.7427 21.472 36.8246 21.472C36.9066 21.472 36.9851 21.4395 37.0431 21.3815L56.3846 2.04V14.7108C56.3846 14.7924 56.417 14.8706 56.4747 14.9283C56.5324 14.986 56.6107 15.0185 56.6923 15.0185C56.7739 15.0185 56.8522 14.986 56.9099 14.9283C56.9676 14.8706 57 14.7924 57 14.7108V1.32C57 1.23839 56.9676 1.16013 56.9099 1.10243C56.8522 1.04473 56.7739 1.01231 56.6923 1.01231H43.2954C43.2138 1.01231 43.1355 1.04473 43.0778 1.10243C43.0201 1.16013 42.9877 1.23839 42.9877 1.32C42.9877 1.40161 43.0201 1.47987 43.0778 1.53757C43.1355 1.59527 43.2138 1.62769 43.2954 1.62769L43.2831 1.61538ZM15.0123 1.30769C15.0123 1.22609 14.9799 1.14782 14.9222 1.09012C14.8645 1.03242 14.7862 1 14.7046 1H1.30769C1.22609 1 1.14782 1.03242 1.09012 1.09012C1.03242 1.14782 1 1.22609 1 1.30769V14.6985C1 14.7801 1.03242 14.8583 1.09012 14.916C1.14782 14.9737 1.22609 15.0062 1.30769 15.0062C1.3893 15.0062 1.46756 14.9737 1.52526 14.916C1.58297 14.8583 1.61538 14.7801 1.61538 14.6985V2.07077L20.9385 21.3938C20.9964 21.4518 21.075 21.4843 21.1569 21.4843C21.2389 21.4843 21.3174 21.4518 21.3754 21.3938C21.4333 21.3359 21.4659 21.2573 21.4659 21.1754C21.4659 21.0934 21.4333 21.0149 21.3754 20.9569L2.02769 1.61538H14.7046C14.7862 1.61538 14.8645 1.58297 14.9222 1.52526C14.9799 1.46756 15.0123 1.3893 15.0123 1.30769ZM21.3938 36.6185C21.3353 36.5617 21.2569 36.5299 21.1754 36.5299C21.0938 36.5299 21.0155 36.5617 20.9569 36.6185L1.61538 55.96V43.2892C1.61538 43.2076 1.58297 43.1294 1.52526 43.0717C1.46756 43.014 1.3893 42.9815 1.30769 42.9815C1.22609 42.9815 1.14782 43.014 1.09012 43.0717C1.03242 43.1294 1 43.2076 1 43.2892V56.68C1 56.7616 1.03242 56.8399 1.09012 56.8976C1.14782 56.9553 1.22609 56.9877 1.30769 56.9877H14.7046C14.7862 56.9877 14.8645 56.9553 14.9222 56.8976C14.9799 56.8399 15.0123 56.7616 15.0123 56.68C15.0123 56.5984 14.9799 56.5201 14.9222 56.4624C14.8645 56.4047 14.7862 56.3723 14.7046 56.3723H2.07077L21.3938 37.0492C21.4233 37.0216 21.4467 36.9882 21.4628 36.9512C21.4788 36.9142 21.4871 36.8742 21.4871 36.8339C21.4871 36.7935 21.4788 36.7535 21.4628 36.7165C21.4467 36.6795 21.4233 36.6461 21.3938 36.6185Z" fill="white" stroke="white" stroke-width="0.5" stroke-miterlimit="10"/>
</svg>
