<svg width="57" height="57" viewBox="0 0 57 57" fill="none" xmlns="http://www.w3.org/2000/svg">
<path d="M0 29.8289C0 34.1652 2.39982 38.1674 6.11818 40.268C2.83782 41.8211 0.665881 45.1498 0.665881 48.8779V56.2874C0.665881 56.6813 0.984906 57 1.37838 57H55.5806C55.974 57 56.2931 56.6813 56.2931 56.2874V48.8779C56.2931 45.1498 54.1211 41.8211 50.8408 40.268C54.5591 38.1674 56.9589 34.1652 56.9589 29.8289C56.9589 23.2188 51.5815 17.8417 44.9717 17.8417C38.3619 17.8417 32.9844 23.2188 32.9844 29.8289C32.9844 34.1652 35.3843 38.1674 39.1026 40.268C35.8223 41.8211 33.6503 45.1498 33.6503 48.8779V55.575H23.3086V48.8779C23.3086 45.1498 21.1367 41.8211 17.8563 40.268C21.5747 38.1674 23.9745 34.1652 23.9745 29.8289C23.9745 23.2188 18.597 17.8417 11.9873 17.8417C5.3775 17.8417 0 23.2188 0 29.8289ZM35.0753 48.8779C35.0753 45.1971 37.5645 41.9748 41.1288 41.0411C41.4283 40.9624 41.6426 40.6994 41.6597 40.3905C41.6767 40.0816 41.492 39.797 41.2029 39.6863C37.1394 38.1305 34.4094 34.1693 34.4094 29.8289C34.4094 24.0051 39.1475 19.2667 44.9717 19.2667C50.7959 19.2667 55.5339 24.0051 55.5339 29.8289C55.5339 34.1693 52.804 38.1305 48.7405 39.6863C48.4514 39.797 48.2667 40.0816 48.2837 40.3905C48.3008 40.6994 48.5151 40.9624 48.8146 41.0411C52.3788 41.9748 54.8681 45.1971 54.8681 48.8779V55.575H35.0753V48.8779ZM11.9873 19.2667C17.8115 19.2667 22.5495 24.0051 22.5495 29.8289C22.5495 34.1693 19.8195 38.1305 15.7561 39.6863C15.467 39.797 15.2822 40.0816 15.2993 40.3905C15.3163 40.6994 15.5306 40.9624 15.8302 41.0411C19.3944 41.9748 21.8836 45.1971 21.8836 48.8779V55.575H2.09088V48.8779C2.09088 45.1971 4.58011 41.9748 8.14435 41.0411C8.44389 40.9624 8.6582 40.6994 8.67524 40.3905C8.69229 40.0816 8.50756 39.797 8.21845 39.6863C4.15497 38.1305 1.425 34.1693 1.425 29.8289C1.425 24.0051 6.16306 19.2667 11.9873 19.2667Z" fill="white"/>
<path d="M48.9456 32.9816C48.653 32.7158 48.2025 32.7409 47.9391 33.0317C47.2207 33.8263 46.199 34.2821 45.1358 34.2821C44.0729 34.2821 43.0511 33.8263 42.3324 33.0317C42.0676 32.7402 41.6178 32.7165 41.3259 32.9816C41.034 33.2453 41.0114 33.6962 41.2755 33.9878C42.2642 35.0802 43.6711 35.7071 45.1358 35.7071C46.6008 35.7071 48.0077 35.0802 48.9961 33.9878C49.2601 33.6955 49.2375 33.2453 48.9456 32.9816Z" fill="white"/>
<path d="M11.6345 35.7071C13.0992 35.7071 14.5061 35.0802 15.4948 33.9878C15.7589 33.6962 15.7363 33.2453 15.4444 32.9816C15.1525 32.7165 14.7027 32.7402 14.4379 33.0317C13.7192 33.8263 12.6974 34.2821 11.6345 34.2821C10.5714 34.2821 9.54958 33.8263 8.83117 33.0317C8.56746 32.7409 8.11693 32.7158 7.82469 32.9816C7.5328 33.2453 7.51019 33.6955 7.77424 33.9878C8.76263 35.0802 10.1695 35.7071 11.6345 35.7071Z" fill="white"/>
<path d="M29.1921 7.60023V0.7125C29.1921 0.318677 28.8731 0 28.4796 0C28.0861 0 27.7671 0.318677 27.7671 0.7125V7.60023C27.7671 7.99405 28.0861 8.31273 28.4796 8.31273C28.8731 8.31273 29.1921 7.99405 29.1921 7.60023Z" fill="white"/>
<path d="M42.6672 10.4217C42.926 10.4217 43.1754 10.2804 43.3017 10.0341L46.4454 3.90551C46.6249 3.55552 46.4868 3.12621 46.1368 2.9467C45.7864 2.76648 45.3575 2.90564 45.1776 3.25563L42.034 9.38424C41.8545 9.73423 41.9926 10.1635 42.3426 10.3431C42.4466 10.3966 42.5579 10.4217 42.6672 10.4217Z" fill="white"/>
<path d="M14.2917 10.4217C14.4009 10.4217 14.5122 10.3966 14.6163 10.3431C14.9663 10.1636 15.1044 9.73424 14.9249 9.38425L11.7812 3.25564C11.6014 2.90496 11.1717 2.7651 10.8221 2.94671C10.4721 3.12622 10.334 3.55553 10.5135 3.90552L13.6571 10.0341C13.7834 10.2804 14.0328 10.4217 14.2917 10.4217Z" fill="white"/>
</svg>
