<svg width="33" height="55" viewBox="0 0 33 55" fill="none" xmlns="http://www.w3.org/2000/svg">
<path d="M29.8741 0C29.8537 0 29.8537 0.020416 29.8318 0.020416C29.8318 0.020416 29.8318 0.020416 29.8106 0.020416C23.2829 0.105859 17.9242 4.9179 16.9888 11.2415C16.9888 11.2415 16.9684 11.2415 16.9684 11.2203C16.9684 11.3269 16.9473 11.4116 16.9253 11.497C16.9253 11.5394 16.9253 11.5817 16.9253 11.6452C16.9042 11.6883 16.9042 11.7095 16.9253 11.7526C16.8618 12.2418 16.8187 12.7318 16.8187 13.221V16.6705C14.756 12.1148 10.1851 8.94205 4.84758 8.94205C4.80524 8.94205 4.76289 8.94205 4.72055 8.94205C4.50808 8.94205 4.29485 8.92088 4.08237 8.94205C3.76328 8.96247 3.48654 9.28231 3.52964 9.62257C4.2956 16.1805 9.84488 21.2474 16.6062 21.2474C16.6698 21.2474 16.7552 21.2474 16.8187 21.2474V22.0353C16.8187 22.0565 16.8187 22.0784 16.8187 22.0996V22.12C16.8187 22.1411 16.8187 22.1411 16.8187 22.1631C16.8187 22.1631 16.8187 22.1631 16.8187 22.1842V30.2106H2.02039C0.914166 30.2106 0 31.1263 0 32.2333V35.4053C0 36.5334 0.914166 37.4491 2.02039 37.4491H2.72208L4.78482 52.14C4.93378 53.2478 5.91146 54.078 7.01693 54.078H13.1832H19.8168H25.9831C27.1097 54.078 28.067 53.2478 28.2152 52.14L30.2779 37.4491H30.9804C32.0858 37.4491 33 36.5334 33 35.4053V32.234C33 31.1271 32.0858 30.2114 30.9804 30.2114H18.03V22.2062C18.03 22.185 18.03 22.185 18.03 22.1631C18.03 22.12 18.03 22.0784 18.03 22.0353V13.2218C18.03 12.9231 18.03 12.6259 18.0512 12.3273C18.1147 12.3273 18.179 12.3273 18.2425 12.3273C25.0039 12.3273 30.5539 7.23924 31.3403 0.681278C31.3615 0.362189 31.0855 0.0423435 30.7664 0.0211717C30.5108 0.000756042 30.2348 0.000756441 29.9792 0.000756441C29.9588 0.000756441 29.9369 0.000756441 29.9369 0.000756441C29.9165 3.05713e-07 29.8953 0 29.8741 0ZM29.98 1.19167C30.0012 1.19167 30.0012 1.19167 30.0012 1.19167C29.0235 6.85512 24.1751 11.1341 18.2425 11.1341C19.2217 5.47215 24.0474 1.19167 29.98 1.19167ZM4.84758 10.1345C10.7802 10.1345 15.6066 14.4142 16.6062 20.0565C10.6736 20.0565 5.84719 15.776 4.84758 10.1345ZM2.02039 31.4038H30.9804C31.4477 31.4038 31.8098 31.766 31.8098 32.234V35.406C31.8098 35.8748 31.4477 36.237 30.9804 36.237H2.02039C1.55234 36.237 1.19091 35.8748 1.19091 35.406V32.234C1.19091 31.766 1.55159 31.4038 2.02039 31.4038ZM3.91224 37.4506H29.0878L27.047 51.9714C26.9827 52.4607 26.4723 52.8871 25.9838 52.8871H19.8175H13.184H7.01769C6.52922 52.8871 6.04001 52.4614 5.95532 51.9714L3.91224 37.4506Z" fill="white"/>
</svg>
