<svg width="60" height="52" viewBox="0 0 60 52" fill="none" xmlns="http://www.w3.org/2000/svg">
<path d="M12.5581 0C9.09857 0 6.27907 2.83982 6.27907 6.32432C6.27907 9.80883 9.09857 12.6486 12.5581 12.6486C16.0177 12.6486 18.8372 9.80883 18.8372 6.32432C18.8372 2.83982 16.0177 0 12.5581 0ZM47.4419 0C43.9823 0 41.1628 2.83982 41.1628 6.32432C41.1628 9.80883 43.9823 12.6486 47.4419 12.6486C50.9014 12.6486 53.7209 9.80883 53.7209 6.32432C53.7209 2.83982 50.9014 0 47.4419 0ZM12.5581 1.40541C15.2636 1.40541 17.4419 3.59936 17.4419 6.32432C17.4419 9.04929 15.2636 11.2432 12.5581 11.2432C9.85267 11.2432 7.67442 9.04929 7.67442 6.32432C7.67442 3.59936 9.85267 1.40541 12.5581 1.40541ZM47.4419 1.40541C50.1473 1.40541 52.3256 3.59936 52.3256 6.32432C52.3256 9.04929 50.1473 11.2432 47.4419 11.2432C44.7364 11.2432 42.5581 9.04929 42.5581 6.32432C42.5581 3.59936 44.7364 1.40541 47.4419 1.40541ZM12.5581 16.8649C5.62085 16.8649 0 22.399 0 29.272V40.0541C1.85001e-05 40.2404 0.0735292 40.4191 0.204365 40.5509C0.3352 40.6827 0.512645 40.7567 0.697674 40.7568H15.7631C17.3301 47.2064 23.118 52 30 52C38.0833 52 44.6512 45.3848 44.6512 37.2432C44.6512 31.8097 41.7179 27.068 37.3692 24.5068C39.1621 20.8158 42.9794 18.2703 47.4419 18.2703C53.646 18.2703 58.6046 23.1684 58.6046 29.272V39.3514H48.1395C48.0471 39.35 47.9553 39.3672 47.8695 39.402C47.7837 39.4367 47.7056 39.4882 47.6398 39.5536C47.5739 39.619 47.5217 39.6969 47.486 39.7828C47.4503 39.8687 47.4319 39.9609 47.4319 40.0541C47.4319 40.1472 47.4503 40.2394 47.486 40.3253C47.5217 40.4112 47.5739 40.4891 47.6398 40.5545C47.7056 40.6199 47.7837 40.6714 47.8695 40.7061C47.9553 40.7409 48.0471 40.7581 48.1395 40.7568H59.3023C59.4874 40.7567 59.6648 40.6827 59.7956 40.5509C59.9265 40.4191 60 40.2404 60 40.0541V29.272C60 22.399 54.3791 16.8649 47.4419 16.8649C42.4574 16.8649 38.1544 19.7066 36.1265 23.8699C34.2569 22.9972 32.1938 22.4865 30 22.4865C27.8062 22.4865 25.7431 22.9972 23.8735 23.8699C21.8456 19.7066 17.5426 16.8649 12.5581 16.8649ZM12.5581 18.2703C17.0206 18.2703 20.8379 20.8158 22.6308 24.5068C18.2821 27.068 15.3488 31.8097 15.3488 37.2432C15.3488 37.9602 15.4031 38.6616 15.5015 39.3514H1.39535V29.272C1.39535 23.1684 6.35403 18.2703 12.5581 18.2703ZM30 23.8919C37.3292 23.8919 43.2558 29.8612 43.2558 37.2432C43.2558 44.6253 37.3292 50.5946 30 50.5946C22.6708 50.5946 16.7442 44.6253 16.7442 37.2432C16.7442 29.8612 22.6708 23.8919 30 23.8919ZM33.3576 32.3024C33.2283 32.3227 33.1073 32.3791 33.0084 32.4653C32.9094 32.5514 32.8365 32.6638 32.7979 32.7897C32.7592 32.9156 32.7565 33.0498 32.7899 33.1772C32.8233 33.3046 32.8916 33.4199 32.9869 33.5101L35.9956 36.5405H22.3256C22.3038 36.5395 22.282 36.5395 22.2602 36.5405C22.1686 36.5449 22.0787 36.5673 21.9957 36.6066C21.9127 36.6459 21.8382 36.7013 21.7764 36.7696C21.7147 36.838 21.6669 36.9179 21.6358 37.0048C21.6047 37.0917 21.5909 37.1839 21.5952 37.2762C21.5995 37.3685 21.6218 37.459 21.6608 37.5426C21.6999 37.6262 21.7549 37.7012 21.8227 37.7634C21.8905 37.8256 21.9698 37.8737 22.0561 37.9051C22.1424 37.9364 22.234 37.9503 22.3256 37.9459H35.9956L32.9869 40.9764C32.8568 41.1103 32.7849 41.2908 32.7869 41.4782C32.789 41.6656 32.8648 41.8445 32.9978 41.9755C33.1308 42.1065 33.31 42.179 33.4961 42.1769C33.6821 42.1749 33.8597 42.0985 33.9898 41.9645L38.1759 37.7483C38.305 37.6168 38.3774 37.4392 38.3774 37.2542C38.3774 37.0692 38.305 36.8917 38.1759 36.7601L33.9898 32.522C33.9689 32.5061 33.947 32.4914 33.9244 32.478C33.8485 32.4087 33.7584 32.3569 33.6604 32.3266C33.5625 32.2962 33.4591 32.288 33.3576 32.3024Z" fill="white"/>
</svg>
